PathFileType	4	(X/Y/Z)	/Users/itak/Documents/Research/Walk-IL/dataset/trc/00368_00011.trc
DataRate	CameraRate	NumFrames	NumMarkers	Units	OrigDataRate	OrigDataStartFrame	OrigNumFrames
100.000000	100.000000	4	61	mm	100.000000	487	557
Frame#	Time	LPSI			L3			STRN			T10			C7			CLAV			RBAK			LBAK			LSHO			LUPA			LAEL			LAOL			LWTS			LWPS			LFRA			LHPS			LHTS			RSHO			RUPA			RAEL			RAOL			RWTS			RWPS			RFRA			RIFD			RHTS			RBHD			LFHD			RFHD			LBHD			LHIP			RHIP			RASI			LASI			LKNE			LANK			LTIP			LTOE			LMT1			LMT5			LHEE			RKNE			RTHI			RANK			RTIP			RTOE			RMT1			RMT5			RHEE			RPSI			RHPS			LTHI			LIFD			*53			*54			*55			*56			*57			*58			*59			*60			
		X1	Y1	Z1	X2	Y2	Z2	X3	Y3	Z3	X4	Y4	Z4	X5	Y5	Z5	X6	Y6	Z6	X7	Y7	Z7	X8	Y8	Z8	X9	Y9	Z9	X10	Y10	Z10	X11	Y11	Z11	X12	Y12	Z12	X13	Y13	Z13	X14	Y14	Z14	X15	Y15	Z15	X16	Y16	Z16	X17	Y17	Z17	X18	Y18	Z18	X19	Y19	Z19	X20	Y20	Z20	X21	Y21	Z21	X22	Y22	Z22	X23	Y23	Z23	X24	Y24	Z24	X25	Y25	Z25	X26	Y26	Z26	X27	Y27	Z27	X28	Y28	Z28	X29	Y29	Z29	X30	Y30	Z30	X31	Y31	Z31	X32	Y32	Z32	X33	Y33	Z33	X34	Y34	Z34	X35	Y35	Z35	X36	Y36	Z36	X37	Y37	Z37	X38	Y38	Z38	X39	Y39	Z39	X40	Y40	Z40	X41	Y41	Z41	X42	Y42	Z42	X43	Y43	Z43	X44	Y44	Z44	X45	Y45	Z45	X46	Y46	Z46	X47	Y47	Z47	X48	Y48	Z48	X49	Y49	Z49	X50	Y50	Z50	X51	Y51	Z51	X52	Y52	Z52	X53	Y53	Z53	X54	Y54	Z54	X55	Y55	Z55	X56	Y56	Z56	X57	Y57	Z57	X58	Y58	Z58	X59	Y59	Z59	X60	Y60	Z60	X61	Y61	Z61	

488	4.87	195.4170989990234	973.039794921875	918.1588134765625	129.2879333496094	1028.365234375	909.1055908203125	126.1897277832031	1231.752563476562	1123.20849609375	145.4321441650391	1147.417724609375	888.8019409179688	166.4888458251953	1398.1572265625	916.0762329101562	139.3294525146484	1353.533935546875	1072.833862304688	100.0974731445312	1257.494018554688	870.6535034179688	267.3441772460938	1357.81298828125	918.9656982421875	312.810546875	1379.528442382812	1009.863464355469	378.2407531738281	1257.032836914062	1009.286804199219	388.9346618652344	1056.430297851562	1047.96533203125	339.8070373535156	1035.87255859375	981.89208984375	335.5655212402344	828.7463989257812	1168.498291015625	394.6307983398438	812.915771484375	1135.76611328125	394.9115600585938	954.7106323242188	1075.984375	388.1156311035156	743.193603515625	1141.015380859375	349.7443542480469	752.50390625	1192.040283203125	-4.218541622161865	1393.531616210938	952.6878662109375	-66.6787109375	1329.865844726562	938.968994140625	-117.6938400268555	1066.609008789062	962.6921997070312	-28.96001625061035	1052.41357421875	933.9146118164062	-92.78115081787109	840.6813354492188	1085.876220703125	-161.8420867919922	832.9295654296875	1052.807861328125	-134.1932373046875	1002.260864257812	992.305419921875	-127.7379760742188	668.916259765625	1102.06640625	-119.1108169555664	739.9964599609375	1114.857177734375	75.68907165527344	1612.096069335938	953.7042236328125	184.1606903076172	1620.818725585938	1131.832397460938	84.41120910644531	1622.718872070312	1116.004638671875	220.5348663330078	1605.247192382812	949.46337890625	293.8212280273438	921.794677734375	1012.511047363281	-54.34804916381836	930.9877319335938	981.1461791992188	-14.57951927185059	963.879150390625	1087.219848632812	221.9257965087891	953.7290649414062	1129.339477539062	261.6725158691406	465.3450622558594	1076.1669921875	237.8170623779297	45.26274108886719	1001.703674316406	261.7286987304688	246.1014099121094	1041.371826171875	178.3871765136719	44.59357452392578	1208.644165039062	136.0462799072266	33.65362167358398	1140.192993164062	249.3158721923828	40.7634391784668	1127.319702148438	169.6967010498047	40.92718505859375	970.0354614257812	-72.80378723144531	469.2326354980469	1042.453979492188	-73.92910003662109	739.7206420898438	1084.293090820312	-83.92262268066406	51.95647048950195	1012.717895507812	-73.55576324462891	354.3818664550781	1055.073120117188	-38.48892211914062	48.14339447021484	1207.168823242188	3.628410577774048	42.28442001342773	1152.968994140625	-106.3943023681641	39.3970832824707	1113.203979492188	-33.91243362426758	52.06301116943359	963.7486572265625	67.09723663330078	975.345947265625	906.054443359375	-169.2363128662109	749.5439453125	1067.738403320312	273.4858093261719	603.0421142578125	1076.589599609375	331.3138732910156	667.075439453125	1195.19921875	nan	nan	nan	nan	nan	nan	nan	nan	nan	nan	nan	nan	nan	nan	nan	nan	nan	nan	nan	nan	nan	nan	nan	nan	
489	4.88	194.3395385742188	973.159423828125	919.7801513671875	128.2057952880859	1028.251831054688	910.789794921875	125.5446243286133	1231.858764648438	1124.527465820312	144.5186614990234	1147.213989257812	890.1443481445312	165.7078247070312	1397.94384765625	916.9877319335938	138.6784820556641	1353.640625	1073.875854492188	99.22829437255859	1257.221313476562	871.9920043945312	266.5233459472656	1357.547241210938	919.8911743164062	312.1444702148438	1379.4033203125	1010.693542480469	377.3407592773438	1256.755859375	1010.164001464844	386.979248046875	1055.80859375	1048.057250976562	337.72216796875	1035.86572265625	981.9635620117188	332.9310913085938	826.9931640625	1166.528930664062	392.0176086425781	811.5150756835938	1133.65966796875	392.5558776855469	953.9960327148438	1075.38427734375	385.313720703125	741.59716796875	1137.866455078125	346.7819519042969	750.249755859375	1188.935546875	-4.881442546844482	1393.513793945312	953.744140625	-67.48371124267578	1329.948120117188	940.2061767578125	-119.2655029296875	1066.905395507812	964.35498046875	-30.55303955078125	1052.408203125	935.6220092773438	-94.95027160644531	841.7767333984375	1089.033935546875	-163.5522003173828	833.3353881835938	1055.289672851562	-135.8656311035156	1002.604614257812	994.1618041992188	-129.364501953125	670.045166015625	1106.476928710938	-121.1234970092773	741.348876953125	1118.677734375	74.82028961181641	1611.95556640625	954.3745727539062	183.5051879882812	1620.966918945312	1132.390991210938	83.71540832519531	1622.805786132812	1116.640014648438	219.7105712890625	1605.229370117188	950.0316162109375	292.74951171875	921.8010864257812	1014.057434082031	-55.29639053344727	931.0152587890625	982.8992309570312	-15.49698829650879	963.8735961914062	1088.961059570312	221.0154418945312	953.7249145507812	1130.97265625	261.0105895996094	465.3098754882812	1076.803588867188	237.773193359375	45.36119842529297	1001.714416503906	261.3171691894531	246.2310791015625	1041.649536132812	178.3338012695312	44.51395797729492	1208.681884765625	135.9671936035156	33.55574417114258	1140.18505859375	249.2311096191406	40.79156875610352	1127.348754882812	169.6305236816406	40.97319793701172	970.005859375	-73.38407135009766	469.2113037109375	1040.6123046875	-74.86434936523438	739.5829467773438	1085.611938476562	-84.07310485839844	51.71570205688477	1012.648681640625	-74.15258026123047	354.4801025390625	1053.523315429688	-38.55764389038086	48.23256301879883	1207.112426757812	3.417459964752197	42.41926956176758	1152.874633789062	-106.6002502441406	39.29207611083984	1113.11083984375	-34.02467727661133	51.96001815795898	963.6536865234375	66.04007720947266	975.6978759765625	907.9118041992188	-170.6880187988281	750.0913696289062	1070.890991210938	272.8944091796875	603.162353515625	1077.267700195312	328.0786437988281	664.8433227539062	1190.675415039062	nan	nan	nan	nan	nan	nan	nan	nan	nan	nan	nan	nan	nan	nan	nan	nan	nan	nan	nan	nan	nan	nan	nan	nan	
490	4.89	193.2160797119141	973.2992553710938	921.3318481445312	127.0721588134766	1028.13232421875	912.4205932617188	124.907829284668	1231.940551757812	1125.825805664062	143.5748901367188	1146.991088867188	891.4944458007812	164.92822265625	1397.704956054688	917.8779296875	138.0213775634766	1353.713134765625	1074.883544921875	98.36663818359375	1256.922119140625	873.3070068359375	265.7087707519531	1357.247192382812	920.7952270507812	311.4786376953125	1379.227783203125	1011.5029296875	376.46875	1256.45068359375	1011.024841308594	385.1026916503906	1055.1611328125	1048.191284179688	335.8029174804688	1035.831787109375	981.9940795898438	330.1995544433594	825.2996215820312	1164.546630859375	389.3623657226562	810.1245727539062	1131.681640625	390.2515869140625	953.2693481445312	1074.838989257812	382.4702758789062	740.0330200195312	1134.802368164062	343.6416931152344	748.0311279296875	1185.796752929688	-5.541743278503418	1393.465942382812	954.7763671875	-68.28701019287109	1329.99609375	941.37890625	-120.8109817504883	1067.142944335938	965.8369140625	-32.06982803344727	1052.366821289062	937.2806396484375	-97.21398162841797	842.9420166015625	1092.213745117188	-165.2339477539062	833.6723022460938	1057.612182617188	-137.5218811035156	1002.884521484375	995.80712890625	-130.8809509277344	671.264404296875	1111.063842773438	-123.1957778930664	742.8206787109375	1122.606201171875	73.96270751953125	1611.791748046875	955.0291748046875	182.8401641845703	1621.1064453125	1132.92041015625	83.00127410888672	1622.859985351562	1117.240356445312	218.8797454833984	1605.20458984375	950.5700073242188	291.6453247070312	921.8417358398438	1015.523010253906	-56.29297637939453	930.9202880859375	984.5567016601562	-16.46268653869629	963.74560546875	1090.606567382812	220.0457305908203	953.70263671875	1132.543579101562	260.3729248046875	465.2774353027344	1077.35693359375	237.7383422851562	45.44190979003906	1001.711853027344	260.9111633300781	246.3608703613281	1041.884521484375	178.2913665771484	44.44100189208984	1208.728759765625	135.9053192138672	33.48104095458984	1140.180419921875	249.1508636474609	40.82033157348633	1127.376953125	169.5669403076172	41.00966262817383	969.976318359375	-73.81671142578125	469.1044921875	1038.945190429688	-75.84784698486328	739.3228759765625	1086.835205078125	-84.14406585693359	51.53016662597656	1012.591186523438	-74.63668823242188	354.5427551269531	1052.075073242188	-38.60201263427734	48.2910270690918	1207.078491210938	3.266361951828003	42.50737380981445	1152.805297851562	-106.7541198730469	39.2170524597168	1113.041015625	-34.07444381713867	51.85406875610352	963.6068115234375	64.92030334472656	975.9984130859375	909.7002563476562	-172.0169677734375	750.5682373046875	1073.974487304688	272.3300170898438	603.3304443359375	1077.835693359375	324.6537170410156	662.656494140625	1186.05322265625	nan	nan	nan	nan	nan	nan	nan	nan	nan	nan	nan	nan	nan	nan	nan	nan	nan	nan	nan	nan	nan	nan	nan	nan	
491	4.9	192.0647125244141	973.4505615234375	922.81396484375	125.9032440185547	1028.00732421875	913.9900512695312	124.2712326049805	1232.008666992188	1127.101684570312	142.5991821289062	1146.754272460938	892.8515014648438	164.147216796875	1397.450439453125	918.7504272460938	137.3550415039062	1353.754638671875	1075.859008789062	97.50846099853516	1256.605834960938	874.5982666015625	264.8988952636719	1356.921508789062	921.6783447265625	310.8095703125	1379.004638671875	1012.29345703125	375.6141052246094	1256.117797851562	1011.863342285156	383.3042907714844	1054.493408203125	1048.369873046875	334.0492553710938	1035.769287109375	981.9852294921875	327.3710327148438	823.6685180664062	1162.558715820312	386.671142578125	808.7522583007812	1129.856567382812	388.0012817382812	952.5368041992188	1074.357543945312	379.6004333496094	738.5142211914062	1131.863159179688	340.3363037109375	745.864501953125	1182.649780273438	-6.205028057098389	1393.398681640625	955.7855224609375	-69.09122467041016	1330.01611328125	942.494384765625	-122.3179092407227	1067.324951171875	967.1705932617188	-33.50831604003906	1052.293823242188	938.8968505859375	-99.49995422363281	844.157470703125	1095.390502929688	-166.8580017089844	833.9602661132812	1059.822021484375	-139.1444854736328	1003.10693359375	997.2794799804688	-132.2689666748047	672.5613403320312	1115.78662109375	-125.2708587646484	744.3888549804688	1126.612548828125	73.11915588378906	1611.614990234375	955.6722412109375	182.1758728027344	1621.24072265625	1133.421752929688	82.28302001953125	1622.891723632812	1117.814331054688	218.0425415039062	1605.167724609375	951.0750122070312	290.5229187011719	921.9129638671875	1016.917114257812	-57.32841873168945	930.7225341796875	986.1129150390625	-17.46723747253418	963.5147705078125	1092.15087890625	219.0276031494141	953.666259765625	1134.051147460938	259.7478637695312	465.2548522949219	1077.827270507812	237.7091674804688	45.50823974609375	1001.697082519531	260.5103759765625	246.4921112060547	1042.072021484375	178.2575378417969	44.37534332275391	1208.7841796875	135.8612976074219	33.42985153198242	1140.179809570312	249.0742950439453	40.85078430175781	1127.40380859375	169.5051422119141	41.03257369995117	969.9501342773438	-74.11248016357422	468.937255859375	1037.472900390625	-76.87019348144531	738.9598999023438	1087.957153320312	-84.14639282226562	51.39656448364258	1012.540771484375	-75.01773834228516	354.574462890625	1050.748168945312	-38.62334442138672	48.3221435546875	1207.057739257812	3.171408891677856	42.55402755737305	1152.756958007812	-106.8588485717773	39.16611480712891	1112.986328125	-34.07121658325195	51.74681854248047	963.6010131835938	63.7556037902832	976.238037109375	911.40869140625	-173.2208557128906	750.9972534179688	1077.02490234375	271.7489318847656	603.502685546875	1078.356201171875	321.0707092285156	660.536865234375	1181.37744140625	nan	nan	nan	nan	nan	nan	nan	nan	nan	nan	nan	nan	nan	nan	nan	nan	nan	nan	nan	nan	nan	nan	nan	nan	
